<?xml version="1.0" encoding="utf-8"?>
<!-- Generator: Adobe Illustrator 26.4.1, SVG Export Plug-In . SVG Version: 6.00 Build 0)  -->
<svg version="1.0" id="katman_1" xmlns="http://www.w3.org/2000/svg" xmlns:xlink="http://www.w3.org/1999/xlink" x="0px" y="0px"
	 viewBox="0 0 32 32" style="enable-background:new 0 0 32 32;" xml:space="preserve">
<style type="text/css">
	.st0{fill:#0074BA;}
	.st1{fill:#00A6ED;}
	.st2{fill:#FFB02E;}
	.st3{fill:#6D4534;}
	.st4{fill:#FCD53F;}
</style>
<path class="st0" d="M18.77,11.51l-5.22-8.58C13.21,2.35,12.6,2,11.93,2H5.34C3.89,2,2.98,3.56,3.69,4.82
	c1.32,2.33,3.18,4.32,5.43,5.78c0.76,0.59,1.7,0.91,2.67,0.91H18.77z"/>
<path class="st1" d="M26.66,2h-6.59c-0.67,0-1.28,0.35-1.62,0.93l-5.22,8.58h6.99c0.97,0,1.9-0.32,2.67-0.91
	c2.25-1.46,4.11-3.44,5.43-5.78C29.02,3.56,28.11,2,26.66,2z"/>
<path class="st2" d="M15.99,30c5.54,0,10.04-4.61,10.04-10.29S21.53,9.42,15.99,9.42c-5.55,0-10.04,4.61-10.04,10.29
	S10.45,30,15.99,30z"/>
<path class="st3" d="M14.08,16.04c0-0.55,0.45-1,1-1H16c0.55,0,1,0.45,1,1V23c0,0.55-0.45,1-1,1c-0.55,0-1-0.45-1-1v-5.96
	C14.48,17,14.08,16.57,14.08,16.04z"/>
<path class="st4" d="M16,28.76c-2.36,0-4.58-0.94-6.24-2.65c-1.67-1.71-2.59-3.98-2.59-6.4s0.92-4.69,2.59-6.4
	c3.44-3.53,9.04-3.53,12.49,0c3.44,3.53,3.44,9.27,0,12.8C20.57,27.82,18.35,28.76,16,28.76z M15.99,11.89
	c-1.95,0-3.91,0.76-5.39,2.29c-1.44,1.48-2.23,3.44-2.23,5.53s0.79,4.05,2.23,5.53c1.44,1.48,3.36,2.29,5.39,2.29
	c2.04,0,3.95-0.81,5.39-2.29c2.97-3.05,2.97-8.01,0-11.06C19.9,12.65,17.95,11.89,15.99,11.89z"/>
</svg>
